<svg id="circle" xmlns="http://www.w3.org/2000/svg" width="64.819" height="64.818" viewBox="0 0 64.819 64.818">
  <defs>
    <style>
      .cls-1 {
        fill: #68b1cc;
      }
    </style>
  </defs>
  <path id="Path_182" data-name="Path 182" class="cls-1" d="M107.929,140.654a1.5,1.5,0,1,1,2.125,2.125L98.673,154.161h30.241a1.508,1.508,0,0,1,0,3.015H98.688l11.382,11.382a1.5,1.5,0,0,1,0,2.126,1.481,1.481,0,0,1-1.07.437,1.544,1.544,0,0,1-1.07-.437L93.985,156.739a1.494,1.494,0,0,1-.438-1.071,1.554,1.554,0,0,1,.438-1.07Zm0,0" transform="translate(-76.91 -123.257)"/>
  <path id="Path_183" data-name="Path 183" class="cls-1" d="M32.407-.075a32.412,32.412,0,1,1-22.915,9.5,32.407,32.407,0,0,1,22.915-9.5Zm0,61.808a29.4,29.4,0,1,0-29.4-29.4A29.435,29.435,0,0,0,32.407,61.734Zm0,0" transform="translate(0 0.075)"/>
</svg>
