<svg xmlns="http://www.w3.org/2000/svg" width="179" height="160" viewBox="0 0 179 160">
  <defs>
    <style>
      .cls-1, .cls-2 {
        fill: #fff;
      }

      .cls-2 {
        font-size: 30px;
        font-family: Montserrat-SemiBold, Montserrat;
        font-weight: 600;
      }
    </style>
  </defs>
  <g id="kategorie" transform="translate(-1029 -90)">
    <path id="Path_4" data-name="Path 4" class="cls-1" d="M132.325,22.466c-3.272-10.195-10.249-17.677-19.14-20.528-16.393-5.257-29.872,1.5-35.018,4.738C73.02,3.439,59.54-3.319,43.149,1.937,34.255,4.789,27.278,12.274,24.006,22.473c-4.3,13.411-1.524,28.6,7.432,40.639A43.733,43.733,0,0,1,39.263,80.26c.577,2.73,1.078,5.734,1.49,8.929,1.237,9.593,3.058,17.293,5.413,22.885,2.822,6.7,6.462,10.316,10.819,10.752.248.025.493.037.737.037,4.289,0,7.873-3.849,10.661-11.457a94.471,94.471,0,0,0,4.576-21.221c.5-4.507,1.66-8.156,3.363-10.554a2.266,2.266,0,0,1,3.69,0c1.7,2.4,2.866,6.046,3.363,10.554a94.476,94.476,0,0,0,4.576,21.221c2.788,7.608,6.372,11.457,10.661,11.457q.365,0,.737-.037c4.357-.436,8-4.053,10.819-10.752,2.355-5.592,4.177-13.291,5.413-22.885.412-3.195.913-6.2,1.489-8.927A43.82,43.82,0,0,1,124.907,63.1C133.855,51.061,136.628,35.872,132.325,22.466ZM119.145,58.813a50.953,50.953,0,0,0-9.1,19.965c-.616,2.915-1.149,6.109-1.586,9.494-2.517,19.527-7.207,27.064-9.779,27.4-.54-.191-2.388-1.967-4.374-7.844A91.288,91.288,0,0,1,90.513,89.4c-.64-5.8-2.2-10.486-4.647-13.925a9.447,9.447,0,0,0-15.4,0C68.024,78.912,66.461,83.6,65.821,89.4a91.3,91.3,0,0,1-3.792,18.434c-1.986,5.877-3.834,7.653-4.375,7.844-2.572-.339-7.262-7.877-9.779-27.4-.436-3.384-.97-6.578-1.586-9.495A50.862,50.862,0,0,0,37.2,58.826c-7.575-10.181-9.95-22.95-6.355-34.16C33.4,16.7,38.683,10.911,45.341,8.776A33.223,33.223,0,0,1,66.886,9.2a35.036,35.036,0,0,1,9.058,4.642l2.218,1.734,2.219-1.727A35.019,35.019,0,0,1,89.448,9.2a33.221,33.221,0,0,1,21.544-.429h0c6.657,2.134,11.94,7.924,14.5,15.885C129.084,35.865,126.713,48.632,119.145,58.813Z" transform="translate(1039.98 90)"/>
    <text id="KATEGORIE-2" data-name="KATEGORIE" class="cls-2" transform="translate(1029 242)"><tspan x="0" y="0">KATEGORIE</tspan></text>
    <g id="list" transform="translate(1093.578 114)">
      <path id="Path_159" data-name="Path 159" class="cls-1" d="M0,10.72H10.72V0H0ZM2.839,2.839H7.881V7.881H2.839Zm0,0"/>
      <path id="Path_160" data-name="Path 160" class="cls-1" d="M149.3,0V10.72h34.32V0Zm31.481,7.881H152.136V2.839h28.642Zm0,0" transform="translate(-135.17)"/>
      <path id="Path_161" data-name="Path 161" class="cls-1" d="M0,157.728H10.72v-10.72H0Zm2.839-7.881H7.881v5.042H2.839Zm0,0" transform="translate(0 -133.097)"/>
      <path id="Path_162" data-name="Path 162" class="cls-1" d="M149.3,157.728h34.32v-10.72H149.3Zm2.839-7.881h28.642v5.042H152.136Zm0,0" transform="translate(-135.17 -133.097)"/>
      <path id="Path_163" data-name="Path 163" class="cls-1" d="M0,304.732H10.72V294.012H0Zm2.839-7.881H7.881v5.042H2.839Zm0,0" transform="translate(0 -266.191)"/>
      <path id="Path_164" data-name="Path 164" class="cls-1" d="M149.3,304.732h34.32V294.012H149.3Zm2.839-7.881h28.642v5.042H152.136Zm0,0" transform="translate(-135.17 -266.191)"/>
    </g>
  </g>
</svg>
