<svg xmlns="http://www.w3.org/2000/svg" xmlns:xlink="http://www.w3.org/1999/xlink" width="134" height="150" viewBox="0 0 134 150">
  <defs>
    <linearGradient id="linear-gradient" x1="0.468" y1="0.072" x2="0.5" y2="1.31" gradientUnits="objectBoundingBox">
      <stop offset="0" stop-color="#82deff"/>
      <stop offset="1" stop-color="#fff"/>
    </linearGradient>
    <filter id="Ellipse_7" x="0" y="0" width="134" height="134" filterUnits="userSpaceOnUse">
      <feOffset dy="3" input="SourceAlpha"/>
      <feGaussianBlur stdDeviation="3" result="blur"/>
      <feFlood flood-opacity="0.384"/>
      <feComposite operator="in" in2="blur"/>
      <feComposite in="SourceGraphic"/>
    </filter>
    <linearGradient id="linear-gradient-2" x1="0.5" y1="0.868" x2="0.5" y2="1" gradientUnits="objectBoundingBox">
      <stop offset="0" stop-color="#fff"/>
      <stop offset="1" stop-color="#fff"/>
    </linearGradient>
  </defs>
  <g id="KATEGORIE" transform="translate(-993 -77)">
    <g transform="matrix(1, 0, 0, 1, 993, 77)" filter="url(#Ellipse_7)">
      <circle id="Ellipse_7-2" data-name="Ellipse 7" cx="58" cy="58" r="58" transform="translate(9 6)" opacity="0.682" fill="url(#linear-gradient)"/>
    </g>
    <path id="Path_184" data-name="Path 184" d="M83.216,12.464C81.4,6.808,77.53,2.657,72.6,1.075A23.346,23.346,0,0,0,53.17,3.7,23.346,23.346,0,0,0,33.742,1.075c-4.934,1.582-8.805,5.735-10.62,11.393a25.127,25.127,0,0,0,4.123,22.546,24.263,24.263,0,0,1,4.341,9.514c.32,1.515.6,3.181.826,4.954a50.411,50.411,0,0,0,3,12.7c1.565,3.716,3.585,5.723,6,5.965.138.014.274.021.409.021,2.379,0,4.368-2.136,5.915-6.356A52.412,52.412,0,0,0,50.28,50.034a12.714,12.714,0,0,1,1.866-5.855,1.257,1.257,0,0,1,2.047,0,12.713,12.713,0,0,1,1.866,5.855A52.414,52.414,0,0,0,58.6,61.807c1.547,4.221,3.535,6.356,5.915,6.356q.2,0,.409-.021c2.417-.242,4.437-2.249,6-5.965a50.417,50.417,0,0,0,3-12.7c.228-1.772.507-3.439.826-4.953A24.311,24.311,0,0,1,79.1,35.006,25.127,25.127,0,0,0,83.216,12.464ZM75.9,32.629a28.269,28.269,0,0,0-5.048,11.076c-.342,1.617-.638,3.389-.88,5.267-1.4,10.833-4,15.015-5.425,15.2-.3-.106-1.325-1.092-2.427-4.352a50.645,50.645,0,0,1-2.1-10.227,16.353,16.353,0,0,0-2.578-7.725,5.241,5.241,0,0,0-8.543,0A16.356,16.356,0,0,0,46.32,49.6a50.655,50.655,0,0,1-2.1,10.227c-1.1,3.26-2.127,4.246-2.427,4.352-1.427-.188-4.029-4.37-5.425-15.2-.242-1.877-.538-3.649-.88-5.268a28.218,28.218,0,0,0-5.043-11.068,21.14,21.14,0,0,1-3.526-18.951c1.417-4.418,4.349-7.632,8.043-8.816a18.432,18.432,0,0,1,11.953.238,19.438,19.438,0,0,1,5.026,2.575l1.23.962L54.4,7.686a19.428,19.428,0,0,1,5.03-2.579,18.431,18.431,0,0,1,11.953-.238h0c3.693,1.184,6.624,4.4,8.042,8.813A21.14,21.14,0,0,1,75.9,32.629Z" transform="translate(1006.98 107)" fill="url(#linear-gradient-2)"/>
    <text id="KATEGORIE-2" data-name="KATEGORIE" transform="translate(1001 222)" fill="#fff" font-size="20" font-family="Montserrat-SemiBold, Montserrat" font-weight="600"><tspan x="0" y="0">KATEGORIE</tspan></text>
    <g id="list" transform="translate(1048.578 123)">
      <path id="Path_159" data-name="Path 159" d="M0,5.3H5.3V0H0ZM1.4,1.4H3.9V3.9H1.4Zm0,0" fill="#fff"/>
      <path id="Path_160" data-name="Path 160" d="M149.3,0V5.3h16.981V0Zm15.577,3.9H150.7V1.4h14.172Zm0,0" transform="translate(-142.307)" fill="#fff"/>
      <path id="Path_161" data-name="Path 161" d="M0,152.312H5.3v-5.3H0Zm1.4-3.9H3.9v2.495H1.4Zm0,0" transform="translate(0 -140.125)" fill="#fff"/>
      <path id="Path_162" data-name="Path 162" d="M149.3,152.312h16.981v-5.3H149.3Zm1.4-3.9h14.172v2.495H150.7Zm0,0" transform="translate(-142.307 -140.125)" fill="#fff"/>
      <path id="Path_163" data-name="Path 163" d="M0,299.316H5.3v-5.3H0Zm1.4-3.9H3.9v2.495H1.4Zm0,0" transform="translate(0 -280.246)" fill="#fff"/>
      <path id="Path_164" data-name="Path 164" d="M149.3,299.316h16.981v-5.3H149.3Zm1.4-3.9h14.172v2.495H150.7Zm0,0" transform="translate(-142.307 -280.246)" fill="#fff"/>
    </g>
  </g>
</svg>
