<svg xmlns="http://www.w3.org/2000/svg" width="113" height="159.862" viewBox="0 0 113 159.862">
  <g id="latami" transform="translate(-1216 -305)">
    <g id="tooth" transform="translate(1166.98 305)">
      <g id="Group_9" data-name="Group 9" transform="translate(49.02 0)" opacity="0.145">
        <path id="Path_4" data-name="Path 4" d="M132.325,22.466c-3.272-10.195-10.249-17.677-19.14-20.528-16.393-5.257-29.872,1.5-35.018,4.738C73.02,3.439,59.54-3.319,43.149,1.937,34.255,4.789,27.278,12.274,24.006,22.473c-4.3,13.411-1.524,28.6,7.432,40.639A43.733,43.733,0,0,1,39.263,80.26c.577,2.73,1.078,5.734,1.49,8.929,1.237,9.593,3.058,17.293,5.413,22.885,2.822,6.7,6.462,10.316,10.819,10.752.248.025.493.037.737.037,4.289,0,7.873-3.849,10.661-11.457a94.471,94.471,0,0,0,4.576-21.221c.5-4.507,1.66-8.156,3.363-10.554a2.266,2.266,0,0,1,3.69,0c1.7,2.4,2.866,6.046,3.363,10.554a94.476,94.476,0,0,0,4.576,21.221c2.788,7.608,6.372,11.457,10.661,11.457q.365,0,.737-.037c4.357-.436,8-4.053,10.819-10.752,2.355-5.592,4.177-13.291,5.413-22.885.412-3.195.913-6.2,1.489-8.927A43.82,43.82,0,0,1,124.907,63.1C133.855,51.061,136.628,35.872,132.325,22.466ZM119.145,58.813a50.953,50.953,0,0,0-9.1,19.965c-.616,2.915-1.149,6.109-1.586,9.494-2.517,19.527-7.207,27.064-9.779,27.4-.54-.191-2.388-1.967-4.374-7.844A91.288,91.288,0,0,1,90.513,89.4c-.64-5.8-2.2-10.486-4.647-13.925a9.447,9.447,0,0,0-15.4,0C68.024,78.912,66.461,83.6,65.821,89.4a91.3,91.3,0,0,1-3.792,18.434c-1.986,5.877-3.834,7.653-4.375,7.844-2.572-.339-7.262-7.877-9.779-27.4-.436-3.384-.97-6.578-1.586-9.495A50.862,50.862,0,0,0,37.2,58.826c-7.575-10.181-9.95-22.95-6.355-34.16C33.4,16.7,38.683,10.911,45.341,8.776A33.223,33.223,0,0,1,66.886,9.2a35.036,35.036,0,0,1,9.058,4.642l2.218,1.734,2.219-1.727A35.019,35.019,0,0,1,89.448,9.2a33.221,33.221,0,0,1,21.544-.429h0c6.657,2.134,11.94,7.924,14.5,15.885C129.084,35.865,126.713,48.632,119.145,58.813Z" transform="translate(-22.02 0)" fill="#fff"/>
      </g>
    </g>
    <g id="XMLID_700_" transform="translate(1251.596 326.843)" opacity="0.151">
      <g id="XMLID_684_">
        <g id="XMLID_685_">
          <path id="XMLID_699_" d="M452.832,153.664a.833.833,0,1,0-.588-.244A.838.838,0,0,0,452.832,153.664Z" transform="translate(-414.391 -139.353)" fill="#fff"/>
          <path id="XMLID_698_" d="M187.2,443.667h-.012a.832.832,0,1,0,0,1.664h.012a.832.832,0,1,0,0-1.664Z" transform="translate(-170.846 -406.752)" fill="#fff"/>
          <path id="XMLID_691_" d="M42.6,33.414V5.824a2.5,2.5,0,0,0-2.5-2.5h-2.85v-.5a2.829,2.829,0,1,0-5.658,0v.5H24.119v-.5a2.829,2.829,0,0,0-5.658,0v.5H10.983v-.5a2.829,2.829,0,1,0-5.658,0v.5H2.5A2.5,2.5,0,0,0,0,5.824V40.1a2.5,2.5,0,0,0,2.5,2.5H33.414A.829.829,0,0,0,34,42.357h0L42.357,34h0A.83.83,0,0,0,42.6,33.414ZM33.261,2.829a1.165,1.165,0,1,1,2.33,0V6.906a1.165,1.165,0,1,1-2.33,0Zm-13.136,0a1.165,1.165,0,1,1,2.33,0V6.906a1.165,1.165,0,1,1-2.33,0V2.829Zm-13.136,0a1.165,1.165,0,1,1,2.33,0V6.906a1.165,1.165,0,1,1-2.33,0ZM1.664,40.1V38.579H13.022a.832.832,0,1,0,0-1.664H1.664v-22.6H35.112a.832.832,0,0,0,0-1.664H1.664V5.824A.833.833,0,0,1,2.5,4.992H5.325V6.906a2.829,2.829,0,1,0,5.658,0V4.992h7.478V6.906a2.829,2.829,0,1,0,5.658,0V4.992H31.6V6.906a2.829,2.829,0,1,0,5.658,0V4.992H40.1a.833.833,0,0,1,.832.832V32.582H35.078a2.5,2.5,0,0,0-2.5,2.5v5.858H2.5A.833.833,0,0,1,1.664,40.1Zm32.582-.345V35.078a.833.833,0,0,1,.832-.832H39.76Z" fill="#fff"/>
          <path id="XMLID_690_" d="M129.318,269.365v-5.743A1.623,1.623,0,0,0,127.7,262h-3.6a.832.832,0,0,0,0,1.664h3.561v2h-3.561a.832.832,0,0,0,0,1.664h3.561v2h-3.561a.832.832,0,0,0,0,1.664h3.6A1.623,1.623,0,0,0,129.318,269.365Z" transform="translate(-113.005 -240.2)" fill="#fff"/>
          <path id="XMLID_687_" d="M225.285,263.664a.832.832,0,0,0,0-1.664h-3.6a1.623,1.623,0,0,0-1.621,1.621v5.743a1.623,1.623,0,0,0,1.621,1.621H224.5a1.623,1.623,0,0,0,1.621-1.621v-2.082a1.623,1.623,0,0,0-1.621-1.621h-2.772v-2h3.561Zm-2.014,3.661h1.182v2h-2.729v-2Z" transform="translate(-201.75 -240.2)" fill="#fff"/>
          <path id="XMLID_686_" d="M321.3,265.661h-2.772v-2h3.561a.832.832,0,0,0,0-1.664h-3.6a1.623,1.623,0,0,0-1.621,1.621V265.7a1.623,1.623,0,0,0,1.621,1.621h2.772v2h-3.561a.832.832,0,1,0,0,1.664h3.6a1.623,1.623,0,0,0,1.621-1.621v-2.082A1.623,1.623,0,0,0,321.3,265.661Z" transform="translate(-290.496 -240.2)" fill="#fff"/>
        </g>
      </g>
    </g>
    <text id="LATAMI-2" data-name="LATAMI" transform="translate(1216 456.862)" fill="#fff" font-size="30" font-family="Montserrat-SemiBold, Montserrat" font-weight="600"><tspan x="0" y="0">LATAMI</tspan></text>
  </g>
</svg>
