<svg xmlns="http://www.w3.org/2000/svg" xmlns:xlink="http://www.w3.org/1999/xlink" width="134" height="150" viewBox="0 0 134 150">
  <defs>
    <filter id="Ellipse_37" x="0" y="0" width="134" height="134" filterUnits="userSpaceOnUse">
      <feOffset dy="3" input="SourceAlpha"/>
      <feGaussianBlur stdDeviation="3" result="blur"/>
      <feFlood flood-opacity="0.384"/>
      <feComposite operator="in" in2="blur"/>
      <feComposite in="SourceGraphic"/>
    </filter>
    <linearGradient id="linear-gradient" x1="0.5" y1="0.868" x2="0.5" y2="1" gradientUnits="objectBoundingBox">
      <stop offset="0" stop-color="#fff"/>
      <stop offset="1" stop-color="#fff"/>
    </linearGradient>
  </defs>
  <g id="LATAMI_dis" data-name="LATAMI dis" transform="translate(-361 -336)">
    <g transform="matrix(1, 0, 0, 1, 361, 336)" filter="url(#Ellipse_37)">
      <circle id="Ellipse_37-2" data-name="Ellipse 37" cx="58" cy="58" r="58" transform="translate(9 6)" fill="#fff" opacity="0.283"/>
    </g>
    <path id="Path_199" data-name="Path 199" d="M83.216,12.464C81.4,6.808,77.53,2.657,72.6,1.075A23.346,23.346,0,0,0,53.17,3.7,23.346,23.346,0,0,0,33.742,1.075c-4.934,1.582-8.805,5.735-10.62,11.393a25.127,25.127,0,0,0,4.123,22.546,24.263,24.263,0,0,1,4.341,9.514c.32,1.515.6,3.181.826,4.954a50.411,50.411,0,0,0,3,12.7c1.565,3.716,3.585,5.723,6,5.965.138.014.274.021.409.021,2.379,0,4.368-2.136,5.915-6.356A52.412,52.412,0,0,0,50.28,50.034a12.714,12.714,0,0,1,1.866-5.855,1.257,1.257,0,0,1,2.047,0,12.713,12.713,0,0,1,1.866,5.855A52.414,52.414,0,0,0,58.6,61.807c1.547,4.221,3.535,6.356,5.915,6.356q.2,0,.409-.021c2.417-.242,4.437-2.249,6-5.965a50.417,50.417,0,0,0,3-12.7c.228-1.772.507-3.439.826-4.953A24.311,24.311,0,0,1,79.1,35.006,25.127,25.127,0,0,0,83.216,12.464ZM75.9,32.629a28.269,28.269,0,0,0-5.048,11.076c-.342,1.617-.638,3.389-.88,5.267-1.4,10.833-4,15.015-5.425,15.2-.3-.106-1.325-1.092-2.427-4.352a50.645,50.645,0,0,1-2.1-10.227,16.353,16.353,0,0,0-2.578-7.725,5.241,5.241,0,0,0-8.543,0A16.356,16.356,0,0,0,46.32,49.6a50.655,50.655,0,0,1-2.1,10.227c-1.1,3.26-2.127,4.246-2.427,4.352-1.427-.188-4.029-4.37-5.425-15.2-.242-1.877-.538-3.649-.88-5.268a28.218,28.218,0,0,0-5.043-11.068,21.14,21.14,0,0,1-3.526-18.951c1.417-4.418,4.349-7.632,8.043-8.816a18.432,18.432,0,0,1,11.953.238,19.438,19.438,0,0,1,5.026,2.575l1.23.962L54.4,7.686a19.428,19.428,0,0,1,5.03-2.579,18.431,18.431,0,0,1,11.953-.238h0c3.693,1.184,6.624,4.4,8.042,8.813A21.14,21.14,0,0,1,75.9,32.629Z" transform="translate(375.98 366)" fill="url(#linear-gradient)"/>
    <text id="LATAMI" transform="translate(391 481)" fill="#fff" font-size="20" font-family="Montserrat-SemiBold, Montserrat" font-weight="600"><tspan x="0" y="0">LATAMI</tspan></text>
    <g id="XMLID_685_" transform="translate(416.596 377.843)">
      <path id="XMLID_699_" d="M452.483,152.965a.483.483,0,1,0-.341-.141A.486.486,0,0,0,452.483,152.965Z" transform="translate(-430.181 -144.663)" fill="#fff"/>
      <path id="XMLID_698_" d="M186.841,443.667h-.007a.483.483,0,1,0,0,.965h.007a.483.483,0,1,0,0-.965Z" transform="translate(-177.356 -422.251)" fill="#fff"/>
      <path id="XMLID_691_" d="M24.715,19.385V3.379a1.45,1.45,0,0,0-1.448-1.448H21.613v-.29a1.641,1.641,0,1,0-3.282,0v.29H13.993v-.29a1.641,1.641,0,0,0-3.282,0v.29H6.372v-.29a1.641,1.641,0,1,0-3.282,0v.29H1.448A1.45,1.45,0,0,0,0,3.379V23.267a1.45,1.45,0,0,0,1.448,1.448H19.385a.481.481,0,0,0,.341-.141h0l4.847-4.847h0A.481.481,0,0,0,24.715,19.385ZM19.3,1.641a.676.676,0,0,1,1.352,0V4.007a.676.676,0,1,1-1.352,0Zm-7.621,0a.676.676,0,1,1,1.352,0V4.007a.676.676,0,1,1-1.352,0V1.641Zm-7.621,0a.676.676,0,1,1,1.352,0V4.007a.676.676,0,1,1-1.352,0ZM.965,23.267v-.885H7.554a.483.483,0,0,0,0-.965H.965V8.3H20.37a.483.483,0,0,0,0-.965H.965V3.379A.483.483,0,0,1,1.448,2.9H3.089v1.11a1.641,1.641,0,1,0,3.282,0V2.9H10.71v1.11a1.641,1.641,0,1,0,3.282,0V2.9h4.338v1.11a1.641,1.641,0,1,0,3.282,0V2.9h1.653a.483.483,0,0,1,.483.483V18.9h-3.4A1.45,1.45,0,0,0,18.9,20.351v3.4H1.448A.483.483,0,0,1,.965,23.267Zm18.9-.2V20.351a.483.483,0,0,1,.483-.483h2.716Z" fill="#fff"/>
      <path id="XMLID_690_" d="M126.775,266.273v-3.332a.942.942,0,0,0-.941-.941h-2.091a.483.483,0,0,0,0,.965h2.066v1.159h-2.066a.483.483,0,0,0,0,.965h2.066v1.158h-2.066a.483.483,0,0,0,0,.965h2.091A.942.942,0,0,0,126.775,266.273Z" transform="translate(-117.311 -249.353)" fill="#fff"/>
      <path id="XMLID_687_" d="M223.091,262.965a.483.483,0,0,0,0-.965H221a.942.942,0,0,0-.941.941v3.332a.942.942,0,0,0,.941.941h1.633a.942.942,0,0,0,.941-.941v-1.208a.942.942,0,0,0-.941-.941h-1.608v-1.158h2.066Zm-1.168,2.124h.685v1.158h-1.583v-1.158Z" transform="translate(-209.437 -249.353)" fill="#fff"/>
      <path id="XMLID_686_" d="M319.434,264.124h-1.608v-1.159h2.066a.483.483,0,0,0,0-.965H317.8a.942.942,0,0,0-.941.941v1.208a.942.942,0,0,0,.941.941h1.608v1.159h-2.066a.483.483,0,1,0,0,.965h2.091a.942.942,0,0,0,.941-.941v-1.208A.942.942,0,0,0,319.434,264.124Z" transform="translate(-301.565 -249.353)" fill="#fff"/>
    </g>
  </g>
</svg>
