<svg id="Group_14" data-name="Group 14" xmlns="http://www.w3.org/2000/svg" width="19.07" height="25.427" viewBox="0 0 19.07 25.427">
  <defs>
    <style>
      .cls-1 {
        fill: #fff;
      }
    </style>
  </defs>
  <path id="Path_133" data-name="Path 133" class="cls-1" d="M214.2,281.156l-.334,3.005a.53.53,0,0,0,.527.588h2.119a.53.53,0,0,0,.527-.588l-.334-3.005a2.1,2.1,0,0,0,.867-1.7,2.119,2.119,0,0,0-4.238,0A2.1,2.1,0,0,0,214.2,281.156Zm1.252-2.763a1.056,1.056,0,0,1,.457,2.009.53.53,0,0,0-.3.535l.306,2.753h-.935l.306-2.753a.53.53,0,0,0-.3-.535,1.056,1.056,0,0,1,.457-2.009Z" transform="translate(-205.917 -263.56)"/>
  <path id="Path_134" data-name="Path 134" class="cls-1" d="M82.541,9.535H80.951V7.416a7.416,7.416,0,1,0-14.833,0V9.535H64.53a.529.529,0,0,0-.53.53V23.308a2.121,2.121,0,0,0,2.119,2.119H80.952a2.121,2.121,0,0,0,2.119-2.119V10.065A.529.529,0,0,0,82.541,9.535ZM67.178,7.416a6.357,6.357,0,0,1,12.714,0V9.535H78.833V7.416a5.3,5.3,0,0,0-10.595,0V9.535H67.178Zm10.595,0V9.535H69.3V7.416a4.238,4.238,0,1,1,8.476,0Zm4.238,15.892a1.061,1.061,0,0,1-1.059,1.059H66.119a1.061,1.061,0,0,1-1.059-1.059V10.595H82.011Z" transform="translate(-64)"/>
</svg>
