<svg xmlns="http://www.w3.org/2000/svg" width="18.289" height="24.386" viewBox="0 0 18.289 24.386">
  <defs>
    <style>
      .cls-1 {
        fill: #fff;
      }
    </style>
  </defs>
  <g id="Group_14" data-name="Group 14" transform="translate(0)">
    <path id="Path_133" data-name="Path 133" class="cls-1" d="M214.165,281l-.32,2.882a.508.508,0,0,0,.505.564h2.032a.508.508,0,0,0,.505-.564l-.32-2.882a2.01,2.01,0,0,0,.832-1.634,2.032,2.032,0,0,0-4.064,0A2.01,2.01,0,0,0,214.165,281Zm1.2-2.65a1.013,1.013,0,0,1,.439,1.927.508.508,0,0,0-.284.513l.294,2.64h-.9l.294-2.64a.508.508,0,0,0-.284-.513,1.013,1.013,0,0,1,.439-1.927Z" transform="translate(-206.22 -264.124)"/>
    <path id="Path_134" data-name="Path 134" class="cls-1" d="M81.781,9.145H80.257V7.113a7.113,7.113,0,1,0-14.225,0V9.145H64.508A.508.508,0,0,0,64,9.653v12.7a2.034,2.034,0,0,0,2.032,2.032H80.257a2.034,2.034,0,0,0,2.032-2.032V9.653A.508.508,0,0,0,81.781,9.145ZM67.048,7.113a6.1,6.1,0,1,1,12.193,0V9.145H78.225V7.113a5.08,5.08,0,0,0-10.161,0V9.145H67.048Zm10.161,0V9.145H69.08V7.113a4.064,4.064,0,1,1,8.129,0Zm4.064,15.241a1.017,1.017,0,0,1-1.016,1.016H66.032a1.017,1.017,0,0,1-1.016-1.016V10.161H81.273Z" transform="translate(-64)"/>
  </g>
</svg>
