<svg xmlns="http://www.w3.org/2000/svg" width="30.497" height="23.23" viewBox="0 0 30.497 23.23">
  <defs>
    <style>
      .cls-1 {
        fill: #fff;
      }
    </style>
  </defs>
  <path id="Path_139" data-name="Path 139" class="cls-1" d="M27.817,61H2.68A2.685,2.685,0,0,0,0,63.68V81.55a2.685,2.685,0,0,0,2.68,2.68H27.817a2.685,2.685,0,0,0,2.68-2.68V63.68A2.685,2.685,0,0,0,27.817,61Zm-.37,1.787L15.305,74.928,3.059,62.787ZM1.787,81.18V64.042l8.606,8.532ZM3.05,82.443l8.611-8.611,3.017,2.991a.893.893,0,0,0,1.261,0l2.942-2.942,8.565,8.565ZM28.71,81.18l-8.565-8.565L28.71,64.05Z" transform="translate(0 -61)"/>
</svg>
