<svg xmlns="http://www.w3.org/2000/svg" width="28.791" height="31.5" viewBox="0 0 28.791 31.5">
  <g id="Group_90" data-name="Group 90" transform="translate(-204 -249)">
    <path id="Path_4" data-name="Path 4" d="M50.3,5.76A7.811,7.811,0,0,0,45.393.5a10.789,10.789,0,0,0-8.978,1.215A10.789,10.789,0,0,0,27.437.5a7.811,7.811,0,0,0-4.908,5.265,11.612,11.612,0,0,0,1.906,10.419,11.213,11.213,0,0,1,2.006,4.4c.148.7.276,1.47.382,2.289a23.3,23.3,0,0,0,1.388,5.867c.723,1.717,1.657,2.645,2.774,2.757.064.006.126.009.189.009,1.1,0,2.019-.987,2.733-2.937a24.221,24.221,0,0,0,1.173-5.441,5.876,5.876,0,0,1,.862-2.706.581.581,0,0,1,.946,0,5.875,5.875,0,0,1,.862,2.706,24.222,24.222,0,0,0,1.173,5.441c.715,1.951,1.634,2.937,2.733,2.937q.094,0,.189-.009c1.117-.112,2.05-1.039,2.774-2.757a23.3,23.3,0,0,0,1.388-5.867c.106-.819.234-1.589.382-2.289a11.235,11.235,0,0,1,2.009-4.4A11.612,11.612,0,0,0,50.3,5.76Zm-3.379,9.319A13.064,13.064,0,0,0,44.588,20.2c-.158.747-.295,1.566-.407,2.434-.645,5.006-1.848,6.939-2.507,7.026-.138-.049-.612-.5-1.122-2.011a23.405,23.405,0,0,1-.972-4.726,7.557,7.557,0,0,0-1.191-3.57,2.422,2.422,0,0,0-3.948,0,7.558,7.558,0,0,0-1.191,3.57,23.409,23.409,0,0,1-.972,4.726c-.509,1.507-.983,1.962-1.122,2.011-.659-.087-1.862-2.02-2.507-7.026-.112-.867-.249-1.687-.407-2.434a13.04,13.04,0,0,0-2.33-5.115,9.77,9.77,0,0,1-1.629-8.758A6,6,0,0,1,28,2.25a8.518,8.518,0,0,1,5.524.11,8.983,8.983,0,0,1,2.322,1.19l.569.445.569-.443A8.978,8.978,0,0,1,39.308,2.36a8.517,8.517,0,0,1,5.524-.11h0a6,6,0,0,1,3.716,4.073A9.769,9.769,0,0,1,46.921,15.079Z" transform="translate(181.98 249)" fill="#28a4d1"/>
    <path id="Path_196" data-name="Path 196" d="M210.407,266.856l2.979,5.995.809,6.1s1.53,5.458,3.27,3.8,3.691-10.424,3.691-10.424l2.708-.909,2.568,11.333,3.246-1.16s.363-7.684,3.1-12.622a7.033,7.033,0,0,1,1.457-2.112S227.1,265.032,210.407,266.856Z" transform="translate(-4 -3.275)" fill="#28a4d1"/>
  </g>
</svg>
