<svg xmlns="http://www.w3.org/2000/svg" xmlns:xlink="http://www.w3.org/1999/xlink" width="134" height="150" viewBox="0 0 134 150">
  <defs>
    <filter id="Ellipse_37" x="0" y="0" width="134" height="134" filterUnits="userSpaceOnUse">
      <feOffset dy="3" input="SourceAlpha"/>
      <feGaussianBlur stdDeviation="3" result="blur"/>
      <feFlood flood-opacity="0.384"/>
      <feComposite operator="in" in2="blur"/>
      <feComposite in="SourceGraphic"/>
    </filter>
    <linearGradient id="linear-gradient" x1="0.5" y1="0.868" x2="0.5" y2="1" gradientUnits="objectBoundingBox">
      <stop offset="0" stop-color="#fff"/>
      <stop offset="1" stop-color="#fff"/>
    </linearGradient>
  </defs>
  <g id="QUIZ_dis" data-name="QUIZ dis" transform="translate(-361 -336)">
    <g transform="matrix(1, 0, 0, 1, 361, 336)" filter="url(#Ellipse_37)">
      <circle id="Ellipse_37-2" data-name="Ellipse 37" cx="58" cy="58" r="58" transform="translate(9 6)" fill="#fff" opacity="0.283"/>
    </g>
    <path id="Path_199" data-name="Path 199" d="M83.216,12.464C81.4,6.808,77.53,2.657,72.6,1.075A23.346,23.346,0,0,0,53.17,3.7,23.346,23.346,0,0,0,33.742,1.075c-4.934,1.582-8.805,5.735-10.62,11.393a25.127,25.127,0,0,0,4.123,22.546,24.263,24.263,0,0,1,4.341,9.514c.32,1.515.6,3.181.826,4.954a50.411,50.411,0,0,0,3,12.7c1.565,3.716,3.585,5.723,6,5.965.138.014.274.021.409.021,2.379,0,4.368-2.136,5.915-6.356A52.412,52.412,0,0,0,50.28,50.034a12.714,12.714,0,0,1,1.866-5.855,1.257,1.257,0,0,1,2.047,0,12.713,12.713,0,0,1,1.866,5.855A52.414,52.414,0,0,0,58.6,61.807c1.547,4.221,3.535,6.356,5.915,6.356q.2,0,.409-.021c2.417-.242,4.437-2.249,6-5.965a50.417,50.417,0,0,0,3-12.7c.228-1.772.507-3.439.826-4.953A24.311,24.311,0,0,1,79.1,35.006,25.127,25.127,0,0,0,83.216,12.464ZM75.9,32.629a28.269,28.269,0,0,0-5.048,11.076c-.342,1.617-.638,3.389-.88,5.267-1.4,10.833-4,15.015-5.425,15.2-.3-.106-1.325-1.092-2.427-4.352a50.645,50.645,0,0,1-2.1-10.227,16.353,16.353,0,0,0-2.578-7.725,5.241,5.241,0,0,0-8.543,0A16.356,16.356,0,0,0,46.32,49.6a50.655,50.655,0,0,1-2.1,10.227c-1.1,3.26-2.127,4.246-2.427,4.352-1.427-.188-4.029-4.37-5.425-15.2-.242-1.877-.538-3.649-.88-5.268a28.218,28.218,0,0,0-5.043-11.068,21.14,21.14,0,0,1-3.526-18.951c1.417-4.418,4.349-7.632,8.043-8.816a18.432,18.432,0,0,1,11.953.238,19.438,19.438,0,0,1,5.026,2.575l1.23.962L54.4,7.686a19.428,19.428,0,0,1,5.03-2.579,18.431,18.431,0,0,1,11.953-.238h0c3.693,1.184,6.624,4.4,8.042,8.813A21.14,21.14,0,0,1,75.9,32.629Z" transform="translate(375.98 366)" fill="url(#linear-gradient)"/>
    <text id="QUIZ" transform="translate(403 481)" fill="#fff" font-size="20" font-family="Montserrat-SemiBold, Montserrat" font-weight="600"><tspan x="0" y="0">QUIZ</tspan></text>
    <g id="brain" transform="translate(390 376.06)">
      <g id="Group_39" data-name="Group 39" transform="translate(41.304 4.705)">
        <g id="Group_38" data-name="Group 38">
          <path id="Path_165" data-name="Path 165" d="M296.567,83a.567.567,0,1,0,.567.567A.567.567,0,0,0,296.567,83Z" transform="translate(-296 -83)" fill="#fff"/>
        </g>
      </g>
      <g id="Group_41" data-name="Group 41" transform="translate(35.636 4.705)">
        <g id="Group_40" data-name="Group 40">
          <path id="Path_166" data-name="Path 166" d="M196.567,83a.567.567,0,1,0,.567.567A.567.567,0,0,0,196.567,83Z" transform="translate(-196 -83)" fill="#fff"/>
        </g>
      </g>
      <g id="Group_43" data-name="Group 43" transform="translate(26)">
        <g id="Group_42" data-name="Group 42">
          <path id="Path_167" data-name="Path 167" d="M51.344,16.941a4.533,4.533,0,0,0,.73-2.431,3.937,3.937,0,0,0-1.436-3.046,3.832,3.832,0,0,0,.3-1.489A4.225,4.225,0,0,0,48.649,6.24a3.4,3.4,0,0,0-2.58-3.707A4.084,4.084,0,0,0,42.438,0a3.983,3.983,0,0,0-3.4,2.041A3.984,3.984,0,0,0,35.636,0a4.083,4.083,0,0,0-3.631,2.532,3.4,3.4,0,0,0-2.58,3.707,4.225,4.225,0,0,0-2.291,3.737,3.832,3.832,0,0,0,.3,1.489A3.937,3.937,0,0,0,26,14.511a4.532,4.532,0,0,0,.73,2.431,3.913,3.913,0,0,0,.455,5.081A4.114,4.114,0,0,0,31.1,26.754h.052a4.469,4.469,0,0,0,7.884-.2,4.469,4.469,0,0,0,7.884.2h.052a4.11,4.11,0,0,0,3.968-4.138,3.629,3.629,0,0,0-.051-.594,3.913,3.913,0,0,0,.455-5.081ZM38.47,8.581a2.253,2.253,0,0,0-1.134-.305.567.567,0,1,0,0,1.134,1.135,1.135,0,0,1,1.134,1.134V21.322a4.524,4.524,0,0,0-3.4-1.54.567.567,0,0,0,0,1.134,3.4,3.4,0,0,1,3.4,3.4,3.536,3.536,0,0,1-3.4,3.571,3.41,3.41,0,0,1-3.078-1.977.567.567,0,0,0-.578-.325l-.12.015a2.958,2.958,0,0,1-2.938-3.65.567.567,0,0,0-.189-.568,2.822,2.822,0,0,1-1.033-2.168,2.789,2.789,0,0,1,.416-1.459,3.824,3.824,0,0,0,2.418.892.567.567,0,0,0,0-1.134,2.98,2.98,0,0,1-2.834-3,2.818,2.818,0,0,1,1.324-2.389.567.567,0,0,0,.19-.758,2.789,2.789,0,0,1-.38-1.387,2.993,2.993,0,0,1,2.834-3,3,3,0,0,1,2.834,3,.567.567,0,1,0,1.134,0A4.11,4.11,0,0,0,31.1,5.838a3.676,3.676,0,0,0-.565.044c0-.015,0-.029,0-.044a2.268,2.268,0,0,1,3.871-1.6.567.567,0,0,0,.8-.8,3.378,3.378,0,0,0-1.88-.955,2.864,2.864,0,0,1,2.309-1.344,3,3,0,0,1,2.834,3Zm9.636,10.068a3.826,3.826,0,0,0,2.418-.892,2.789,2.789,0,0,1,.416,1.458,2.822,2.822,0,0,1-1.033,2.168.567.567,0,0,0-.189.568,2.8,2.8,0,0,1,.088.664A2.953,2.953,0,0,1,46.781,25.6l-.12-.015a.566.566,0,0,0-.578.325A3.411,3.411,0,0,1,43,27.888a3.536,3.536,0,0,1-3.4-3.571,3.4,3.4,0,0,1,3.4-3.4.567.567,0,0,0,0-1.134,4.524,4.524,0,0,0-3.4,1.54V10.543a1.135,1.135,0,0,1,1.134-1.134.567.567,0,0,0,0-1.134,2.253,2.253,0,0,0-1.134.305V4.138a3,3,0,0,1,2.834-3,2.864,2.864,0,0,1,2.309,1.344,3.378,3.378,0,0,0-1.88.955.567.567,0,1,0,.8.8,2.268,2.268,0,0,1,3.871,1.6c0,.015,0,.03,0,.044a3.676,3.676,0,0,0-.565-.044A4.11,4.11,0,0,0,43,9.976a.567.567,0,0,0,1.134,0,2.839,2.839,0,1,1,5.668,0,2.789,2.789,0,0,1-.38,1.387.567.567,0,0,0,.19.758,2.818,2.818,0,0,1,1.324,2.389,2.979,2.979,0,0,1-2.834,3,.567.567,0,0,0,0,1.134Z" transform="translate(-26)" fill="#fff"/>
        </g>
      </g>
      <g id="Group_45" data-name="Group 45" transform="translate(30.535 9.409)">
        <g id="Group_44" data-name="Group 44">
          <path id="Path_168" data-name="Path 168" d="M112.658,168.724a.567.567,0,0,0-.8-.045,2.839,2.839,0,0,1-4.724-2.112.567.567,0,0,0-1.134,0,3.974,3.974,0,0,0,3.322,3.914,1.7,1.7,0,0,1-1.621,1.187.567.567,0,0,0,0,1.134,2.838,2.838,0,0,0,2.783-2.3,3.961,3.961,0,0,0,2.129-.976A.567.567,0,0,0,112.658,168.724Z" transform="translate(-106 -166)" fill="#fff"/>
        </g>
      </g>
      <g id="Group_47" data-name="Group 47" transform="translate(30.535 22.05)">
        <g id="Group_46" data-name="Group 46">
          <path id="Path_169" data-name="Path 169" d="M106.567,389a.567.567,0,0,0,0,1.134,3,3,0,0,1,2.834,3,.567.567,0,1,0,1.134,0A4.11,4.11,0,0,0,106.567,389Z" transform="translate(-106 -389)" fill="#fff"/>
        </g>
      </g>
      <g id="Group_49" data-name="Group 49" transform="translate(31.124 17.515)">
        <g id="Group_48" data-name="Group 48">
          <path id="Path_170" data-name="Path 170" d="M120.91,309a5.091,5.091,0,0,0-4.438,2.585.567.567,0,0,0,.986.559,3.959,3.959,0,0,1,3.452-2.011.567.567,0,0,0,0-1.134Z" transform="translate(-116.398 -309)" fill="#fff"/>
        </g>
      </g>
      <g id="Group_51" data-name="Group 51" transform="translate(40.737 9.409)">
        <g id="Group_50" data-name="Group 50">
          <path id="Path_171" data-name="Path 171" d="M291.1,171.668a1.7,1.7,0,0,1-1.621-1.187,3.974,3.974,0,0,0,3.322-3.914.567.567,0,1,0-1.134,0,2.834,2.834,0,0,1-4.724,2.112.567.567,0,1,0-.756.845,3.961,3.961,0,0,0,2.129.976,2.838,2.838,0,0,0,2.783,2.3.567.567,0,1,0,0-1.134Z" transform="translate(-286 -166)" fill="#fff"/>
        </g>
      </g>
      <g id="Group_53" data-name="Group 53" transform="translate(43.005 22.05)">
        <g id="Group_52" data-name="Group 52">
          <path id="Path_172" data-name="Path 172" d="M329.968,389A4.11,4.11,0,0,0,326,393.138a.567.567,0,1,0,1.134,0,3,3,0,0,1,2.834-3,.567.567,0,0,0,0-1.134Z" transform="translate(-326 -389)" fill="#fff"/>
        </g>
      </g>
      <g id="Group_55" data-name="Group 55" transform="translate(41.871 17.515)">
        <g id="Group_54" data-name="Group 54">
          <path id="Path_173" data-name="Path 173" d="M311.005,311.585A5.09,5.09,0,0,0,306.567,309a.567.567,0,1,0,0,1.134,3.96,3.96,0,0,1,3.452,2.011.567.567,0,0,0,.986-.559Z" transform="translate(-306 -309)" fill="#fff"/>
        </g>
      </g>
    </g>
  </g>
</svg>
