<svg xmlns="http://www.w3.org/2000/svg" width="112.294" height="160" viewBox="0 0 112.294 160">
  <g id="quiz" transform="translate(-1061 -90)">
    <path id="Path_4" data-name="Path 4" d="M132.325,22.466c-3.272-10.195-10.249-17.677-19.14-20.528-16.393-5.257-29.872,1.5-35.018,4.738C73.02,3.439,59.54-3.319,43.149,1.937,34.255,4.789,27.278,12.274,24.006,22.473c-4.3,13.411-1.524,28.6,7.432,40.639A43.733,43.733,0,0,1,39.263,80.26c.577,2.73,1.078,5.734,1.49,8.929,1.237,9.593,3.058,17.293,5.413,22.885,2.822,6.7,6.462,10.316,10.819,10.752.248.025.493.037.737.037,4.289,0,7.873-3.849,10.661-11.457a94.471,94.471,0,0,0,4.576-21.221c.5-4.507,1.66-8.156,3.363-10.554a2.266,2.266,0,0,1,3.69,0c1.7,2.4,2.866,6.046,3.363,10.554a94.476,94.476,0,0,0,4.576,21.221c2.788,7.608,6.372,11.457,10.661,11.457q.365,0,.737-.037c4.357-.436,8-4.053,10.819-10.752,2.355-5.592,4.177-13.291,5.413-22.885.412-3.195.913-6.2,1.489-8.927A43.82,43.82,0,0,1,124.907,63.1C133.855,51.061,136.628,35.872,132.325,22.466ZM119.145,58.813a50.953,50.953,0,0,0-9.1,19.965c-.616,2.915-1.149,6.109-1.586,9.494-2.517,19.527-7.207,27.064-9.779,27.4-.54-.191-2.388-1.967-4.374-7.844A91.288,91.288,0,0,1,90.513,89.4c-.64-5.8-2.2-10.486-4.647-13.925a9.447,9.447,0,0,0-15.4,0C68.024,78.912,66.461,83.6,65.821,89.4a91.3,91.3,0,0,1-3.792,18.434c-1.986,5.877-3.834,7.653-4.375,7.844-2.572-.339-7.262-7.877-9.779-27.4-.436-3.384-.97-6.578-1.586-9.495A50.862,50.862,0,0,0,37.2,58.826c-7.575-10.181-9.95-22.95-6.355-34.16C33.4,16.7,38.683,10.911,45.341,8.776A33.223,33.223,0,0,1,66.886,9.2a35.036,35.036,0,0,1,9.058,4.642l2.218,1.734,2.219-1.727A35.019,35.019,0,0,1,89.448,9.2a33.221,33.221,0,0,1,21.544-.429h0c6.657,2.134,11.94,7.924,14.5,15.885C129.084,35.865,126.713,48.632,119.145,58.813Z" transform="translate(1038.98 90)" fill="#fff" opacity="0.15"/>
    <g id="brain" transform="translate(1068 106.862)" opacity="0.145">
      <g id="Group_39" data-name="Group 39" transform="translate(53.213 8.366)">
        <g id="Group_38" data-name="Group 38">
          <path id="Path_165" data-name="Path 165" d="M297.008,83a1.008,1.008,0,1,0,1.008,1.008A1.008,1.008,0,0,0,297.008,83Z" transform="translate(-296 -83)" fill="#fff"/>
        </g>
      </g>
      <g id="Group_41" data-name="Group 41" transform="translate(43.134 8.366)">
        <g id="Group_40" data-name="Group 40">
          <path id="Path_166" data-name="Path 166" d="M197.008,83a1.008,1.008,0,1,0,1.008,1.008A1.008,1.008,0,0,0,197.008,83Z" transform="translate(-196 -83)" fill="#fff"/>
        </g>
      </g>
      <g id="Group_43" data-name="Group 43" transform="translate(26)">
        <g id="Group_42" data-name="Group 42">
          <path id="Path_167" data-name="Path 167" d="M71.065,30.124a8.061,8.061,0,0,0,1.3-4.322,7,7,0,0,0-2.553-5.416,6.814,6.814,0,0,0,.537-2.648,7.513,7.513,0,0,0-4.074-6.644A6.041,6.041,0,0,0,61.685,4.5,7.261,7.261,0,0,0,55.229,0a7.083,7.083,0,0,0-6.047,3.63A7.083,7.083,0,0,0,43.134,0a7.261,7.261,0,0,0-6.456,4.5,6.04,6.04,0,0,0-4.588,6.592,7.513,7.513,0,0,0-4.074,6.644,6.813,6.813,0,0,0,.537,2.648A7,7,0,0,0,26,25.8a8.059,8.059,0,0,0,1.3,4.322,6.958,6.958,0,0,0,.809,9.034,7.316,7.316,0,0,0,6.965,8.414h.092a7.946,7.946,0,0,0,14.018-.351,7.946,7.946,0,0,0,14.018.351h.092a7.308,7.308,0,0,0,7.055-7.358,6.452,6.452,0,0,0-.091-1.056,6.958,6.958,0,0,0,.809-9.034ZM48.174,15.258a4.006,4.006,0,0,0-2.016-.542,1.008,1.008,0,0,0,0,2.016,2.018,2.018,0,0,1,2.016,2.016V37.914a8.045,8.045,0,0,0-6.047-2.738,1.008,1.008,0,0,0,0,2.016,6.054,6.054,0,0,1,6.047,6.047,6.287,6.287,0,0,1-6.047,6.35,6.064,6.064,0,0,1-5.473-3.516,1.008,1.008,0,0,0-1.028-.577l-.213.027c-2.868.392-6.1-2.856-5.224-6.49a1.008,1.008,0,0,0-.335-1.01,5.018,5.018,0,0,1-1.837-3.856,4.96,4.96,0,0,1,.74-2.594,6.8,6.8,0,0,0,4.3,1.586,1.008,1.008,0,0,0,0-2.016A5.3,5.3,0,0,1,28.016,25.8a5.011,5.011,0,0,1,2.354-4.247,1.008,1.008,0,0,0,.337-1.349,4.96,4.96,0,0,1-.675-2.467A5.322,5.322,0,0,1,35.071,12.4a5.334,5.334,0,0,1,5.039,5.342,1.008,1.008,0,1,0,2.016,0,7.308,7.308,0,0,0-7.055-7.358,6.536,6.536,0,0,0-1.005.079c0-.027,0-.052,0-.079a4.032,4.032,0,0,1,6.883-2.851A1.008,1.008,0,0,0,42.371,6.1a6.007,6.007,0,0,0-3.343-1.7,5.092,5.092,0,0,1,4.106-2.39,5.333,5.333,0,0,1,5.039,5.342Zm17.134,17.9a6.8,6.8,0,0,0,4.3-1.585,4.96,4.96,0,0,1,.74,2.593,5.018,5.018,0,0,1-1.837,3.856,1.008,1.008,0,0,0-.335,1.01,4.973,4.973,0,0,1,.157,1.181c0,3.129-2.83,5.657-5.381,5.308-.071-.01-.142-.019-.213-.027a1.007,1.007,0,0,0-1.028.577,6.065,6.065,0,0,1-5.473,3.516,6.287,6.287,0,0,1-6.047-6.35,6.054,6.054,0,0,1,6.047-6.047,1.008,1.008,0,0,0,0-2.016,8.045,8.045,0,0,0-6.047,2.738V18.747a2.018,2.018,0,0,1,2.016-2.016,1.008,1.008,0,0,0,0-2.016,4.006,4.006,0,0,0-2.016.542v-7.9a5.333,5.333,0,0,1,5.039-5.342,5.092,5.092,0,0,1,4.106,2.39,6.007,6.007,0,0,0-3.343,1.7,1.008,1.008,0,1,0,1.424,1.426A4.032,4.032,0,0,1,64.3,10.381c0,.027,0,.053,0,.079a6.536,6.536,0,0,0-1.005-.079,7.308,7.308,0,0,0-7.055,7.358,1.008,1.008,0,0,0,2.016,0,5.048,5.048,0,1,1,10.079,0,4.96,4.96,0,0,1-.675,2.467,1.008,1.008,0,0,0,.337,1.349A5.011,5.011,0,0,1,70.347,25.8a5.3,5.3,0,0,1-5.039,5.342,1.008,1.008,0,0,0,0,2.016Z" transform="translate(-26)" fill="#fff"/>
        </g>
      </g>
      <g id="Group_45" data-name="Group 45" transform="translate(34.063 16.731)">
        <g id="Group_44" data-name="Group 44">
          <path id="Path_168" data-name="Path 168" d="M117.838,170.843a1.008,1.008,0,0,0-1.423-.079,5.048,5.048,0,0,1-8.4-3.756,1.008,1.008,0,1,0-2.016,0,7.066,7.066,0,0,0,5.906,6.96,3.029,3.029,0,0,1-2.883,2.111,1.008,1.008,0,1,0,0,2.016A5.047,5.047,0,0,0,113.973,174a7.044,7.044,0,0,0,3.786-1.736A1.008,1.008,0,0,0,117.838,170.843Z" transform="translate(-106 -166)" fill="#fff"/>
        </g>
      </g>
      <g id="Group_47" data-name="Group 47" transform="translate(34.063 39.207)">
        <g id="Group_46" data-name="Group 46">
          <path id="Path_169" data-name="Path 169" d="M107.008,389a1.008,1.008,0,0,0,0,2.016,5.334,5.334,0,0,1,5.039,5.342,1.008,1.008,0,1,0,2.016,0A7.308,7.308,0,0,0,107.008,389Z" transform="translate(-106 -389)" fill="#fff"/>
        </g>
      </g>
      <g id="Group_49" data-name="Group 49" transform="translate(35.111 31.144)">
        <g id="Group_48" data-name="Group 48">
          <path id="Path_170" data-name="Path 170" d="M124.421,309a9.052,9.052,0,0,0-7.892,4.6,1.008,1.008,0,0,0,1.754.994,7.04,7.04,0,0,1,6.138-3.575,1.008,1.008,0,1,0,0-2.016Z" transform="translate(-116.398 -309)" fill="#fff"/>
        </g>
      </g>
      <g id="Group_51" data-name="Group 51" transform="translate(52.205 16.731)">
        <g id="Group_50" data-name="Group 50">
          <path id="Path_171" data-name="Path 171" d="M295.071,176.079a3.029,3.029,0,0,1-2.883-2.111,7.066,7.066,0,0,0,5.906-6.96,1.008,1.008,0,1,0-2.016,0,5.039,5.039,0,0,1-8.4,3.756,1.008,1.008,0,1,0-1.344,1.5A7.044,7.044,0,0,0,290.122,174a5.047,5.047,0,0,0,4.949,4.092,1.008,1.008,0,1,0,0-2.016Z" transform="translate(-286 -166)" fill="#fff"/>
        </g>
      </g>
      <g id="Group_53" data-name="Group 53" transform="translate(56.237 39.207)">
        <g id="Group_52" data-name="Group 52">
          <path id="Path_172" data-name="Path 172" d="M333.055,389A7.308,7.308,0,0,0,326,396.358a1.008,1.008,0,1,0,2.016,0,5.333,5.333,0,0,1,5.039-5.342,1.008,1.008,0,0,0,0-2.016Z" transform="translate(-326 -389)" fill="#fff"/>
        </g>
      </g>
      <g id="Group_55" data-name="Group 55" transform="translate(54.221 31.144)">
        <g id="Group_54" data-name="Group 54">
          <path id="Path_173" data-name="Path 173" d="M314.9,313.6a9.051,9.051,0,0,0-7.892-4.6,1.008,1.008,0,0,0,0,2.016,7.041,7.041,0,0,1,6.138,3.575,1.008,1.008,0,0,0,1.754-.994Z" transform="translate(-306 -309)" fill="#fff"/>
        </g>
      </g>
    </g>
    <text id="QUIZ-2" data-name="QUIZ" transform="translate(1079 242)" fill="#fff" font-size="30" font-family="Montserrat-SemiBold, Montserrat" font-weight="600"><tspan x="0" y="0">QUIZ</tspan></text>
  </g>
</svg>
