<svg xmlns="http://www.w3.org/2000/svg" width="23.08" height="23.648" viewBox="0 0 23.08 23.648">
  <defs>
    <style>
      .cls-1 {
        fill: #fff;
      }
    </style>
  </defs>
  <path id="Path_135" data-name="Path 135" class="cls-1" d="M3.932,16.026A15.437,15.437,0,0,1,9.186,12.8c-1.839-1.267-3.58-3.387-3.58-5.784,0-3.87,2.666-6.384,6.536-6.384a6,6,0,0,1,6.392,6.384A7.22,7.22,0,0,1,15.269,12.8a14.3,14.3,0,0,1,4.973,3.222,11.264,11.264,0,0,1,3.5,8.258H22.386a10.563,10.563,0,0,0-10.245-10.6A10.563,10.563,0,0,0,1.9,24.283H.657A11.064,11.064,0,0,1,3.932,16.026Zm8.21-3.884A5.122,5.122,0,1,0,7.019,7.019,5.128,5.128,0,0,0,12.142,12.142Z" transform="translate(-0.657 -0.635)"/>
</svg>
